HIERARCHY
ROOT Hips
{
    OFFSET 0.000000 0.000000 0.000000
    CHANNELS 6 Xposition Yposition Zposition Zrotation Xrotation Yrotation
    JOINT Spine
    {
        OFFSET -0.000000 0.079523 0.000000
        CHANNELS 3 Zrotation Xrotation Yrotation
        JOINT Spine1
        {
            OFFSET -0.000000 0.192445 0.000000
            CHANNELS 3 Zrotation Xrotation Yrotation
            JOINT Neck
            {
                OFFSET -0.000000 0.191655 0.017423
                CHANNELS 3 Zrotation Xrotation Yrotation
                JOINT Head
                {
                    OFFSET -0.000000 0.135771 -0.019396
                    CHANNELS 3 Zrotation Xrotation Yrotation
                    End Site
                    {
                        OFFSET -0.000000 0.242449 0.000000
                    }
                }
            }
            JOINT LeftShoulder
            {
                OFFSET 0.039141 0.175231 -0.001157
                CHANNELS 3 Zrotation Xrotation Yrotation
                JOINT LeftArm
                {
                    OFFSET 0.104248 0.000000 0.000000
                    CHANNELS 3 Zrotation Xrotation Yrotation
                    JOINT LeftForeArm
                    {
                        OFFSET 0.307569 0.000000 0.000000
                        CHANNELS 3 Zrotation Xrotation Yrotation
                        JOINT LeftHand
                        {
                            OFFSET 0.230447 0.000000 0.000000
                            CHANNELS 3 Zrotation Xrotation Yrotation
                            End Site
                            {
                                OFFSET 0.145469 0.000000 0.000000
                            }
                        }
                    }
                }
            }
            JOINT RightShoulder
            {
                OFFSET -0.038425 0.175231 -0.001157
                CHANNELS 3 Zrotation Xrotation Yrotation
                JOINT RightArm
                {
                    OFFSET -0.104248 0.000000 0.000000
                    CHANNELS 3 Zrotation Xrotation Yrotation
                    JOINT RightForeArm
                    {
                        OFFSET -0.307569 0.000000 0.000000
                        CHANNELS 3 Zrotation Xrotation Yrotation
                        JOINT RightHand
                        {
                            OFFSET -0.230447 0.000000 0.000000
                            CHANNELS 3 Zrotation Xrotation Yrotation
                            End Site
                            {
                                OFFSET -0.145469 0.000000 0.000000
                            }
                        }
                    }
                }
            }
        }
    }
    JOINT LeftUpLeg
    {
        OFFSET 0.096979 0.000000 0.000000
        CHANNELS 3 Zrotation Xrotation Yrotation
        JOINT LeftLeg
        {
            OFFSET -0.000000 -0.427459 0.000000
            CHANNELS 3 Zrotation Xrotation Yrotation
            JOINT LeftFoot
            {
                OFFSET -0.000000 -0.447558 0.000000
                CHANNELS 3 Zrotation Xrotation Yrotation
                JOINT LeftToeBase
                {
                    OFFSET -0.000000 -0.063037 0.145469
                    CHANNELS 3 Zrotation Xrotation Yrotation
                    End Site
                    {
                        OFFSET -0.000000 0.000000 0.038792
                    }
                }
            }
        }
    }
    JOINT RightUpLeg
    {
        OFFSET -0.096979 0.000000 0.000000
        CHANNELS 3 Zrotation Xrotation Yrotation
        JOINT RightLeg
        {
            OFFSET -0.000000 -0.427459 0.000000
            CHANNELS 3 Zrotation Xrotation Yrotation
            JOINT RightFoot
            {
                OFFSET -0.000000 -0.447558 0.000000
                CHANNELS 3 Zrotation Xrotation Yrotation
                JOINT RightToeBase
                {
                    OFFSET -0.000000 -0.063037 0.145469
                    CHANNELS 3 Zrotation Xrotation Yrotation
                    End Site
                    {
                        OFFSET -0.000000 0.000000 0.038792
                    }
                }
            }
        }
    }
}
MOTION
Frames:    7
Frame Time:    0.008333
0.788249    0.905906    -1.033864    -1.986342    1.088720    -7.319438    -4.172606    -11.605280    -0.424215    13.320947    13.733418    -0.285934    -10.638121    15.172869    1.514717    6.616277    -15.315935    3.486438    0.000000    0.000000    0.000000    -31.431257    1.051911    -3.737180    -93.255287    7.586748    -7.168576    32.408600    25.035156    -6.220980    -7.150969    12.389587    6.015530    67.141243    -37.649658    13.881168    39.142311    -2.896739    -8.136016    -34.970547    41.506317    20.607512    -1.099810    -0.763960    3.084696    0.152252    8.385298    -0.124112    1.636928    -14.598019    6.138447    0.000000    0.000000    0.000000    -1.292418    -1.143090    24.687151    5.599257    8.596554    7.243011    -3.157630    -15.001884    -25.264526    0.000000    0.000000    0.000000    
0.788218    0.905892    -1.033518    -2.013500    1.092220    -7.323361    -4.124997    -11.598995    -0.419140    13.300894    13.727610    -0.280997    -10.658929    15.228368    1.581789    6.599748    -15.453086    3.553852    0.000000    0.000000    0.000000    -45.690685    2.161045    -5.115772    -78.376472    5.684237    -6.969564    31.781309    25.184998    -6.210117    -7.115671    12.384629    5.863918    67.242226    -37.576340    13.959110    39.211529    -2.890930    -8.104286    -34.930527    41.747219    20.639116    -1.076392    -0.738084    3.009587    0.161463    8.375229    -0.221322    1.672786    -14.652150    6.451213    0.000000    0.000000    0.000000    -1.267610    -1.099711    24.664919    5.577213    8.555465    7.269187    -3.107097    -14.999302    -25.262690    0.000000    0.000000    0.000000    
0.788202    0.905846    -1.033190    -2.024706    1.098417    -7.346624    -4.088455    -11.593006    -0.415235    13.275167    13.720867    -0.254336    -10.677276    15.179944    1.675740    6.607166    -15.454044    3.658673    0.000000    0.000000    0.000000    -53.271198    2.879992    -5.714425    -68.942612    4.505775    -6.559217    30.260719    25.092793    -6.464832    -7.088057    12.409309    5.764410    67.344429    -37.533485    14.016587    39.273453    -2.866597    -8.022661    -34.846775    41.928886    20.657190    -1.076230    -0.717329    2.982120    0.159863    8.382951    -0.035683    1.668122    -14.634874    6.191456    0.000000    0.000000    0.000000    -1.263020    -1.059292    24.804054    5.594131    8.492926    7.115676    -3.119364    -14.974097    -25.250420    0.000000    0.000000    0.000000    
0.787834    0.905866    -1.032328    -2.221565    0.866009    -7.324216    -3.907107    -11.409644    -0.390470    13.268448    13.786560    -0.294358    -10.728123    15.209764    1.731708    6.632766    -15.531229    3.725697    0.000000    0.000000    0.000000    -57.801346    3.344987    -6.017655    -62.593151    3.743079    -6.153406    28.639568    25.119158    -6.608752    -7.092819    12.467237    5.679846    67.534073    -37.536419    14.129480    39.306015    -2.843226    -7.950226    -34.809704    42.053570    20.703995    -0.880883    -0.362612    2.920970    0.121175    8.314874    0.026972    1.729842    -14.729840    6.202711    0.000000    0.000000    0.000000    -1.054074    -0.688649    24.680998    5.483500    8.426746    7.200170    -3.008743    -14.910930    -25.212229    0.000000    0.000000    0.000000    
0.787795    0.905947    -1.032008    -2.207622    0.933752    -7.313623    -3.910032    -11.500658    -0.393894    13.267040    13.806263    -0.311125    -10.677429    15.380238    1.791851    6.487051    -15.865419    3.748648    0.000000    0.000000    0.000000    -60.752293    3.660003    -6.188841    -58.138523    3.216580    -5.782960    27.218788    25.366753    -6.718867    -7.068976    12.498743    5.583635    67.671562    -37.517910    14.219652    39.293591    -2.820467    -7.889555    -34.602978    42.154167    20.516569    -0.895672    -0.421260    2.856442    0.131967    8.326104    0.089397    1.687951    -14.761069    6.328328    0.000000    0.000000    0.000000    -1.064294    -0.720399    24.619337    5.477138    8.390640    7.213766    -2.999050    -14.878539    -25.194395    0.000000    0.000000    0.000000    
0.788240    0.905886    -1.032347    -1.954669    1.269359    -7.452990    -4.045799    -11.834101    -0.419492    13.181472    13.800235    -0.154436    -10.720753    15.436008    1.844286    6.508149    -15.994322    3.810746    0.000000    0.000000    0.000000    -62.801472    3.883671    -6.294968    -54.908913    2.858971    -5.499568    26.358082    25.283197    -6.860987    -7.077001    12.545449    5.518897    67.868187    -37.547649    14.324930    39.284847    -2.801357    -7.838203    -34.520500    42.289604    20.486736    -1.174118    -0.839472    2.951332    0.230014    8.376308    -0.039261    1.686777    -14.658550    6.472400    0.000000    0.000000    0.000000    -1.326507    -1.194510    24.697960    5.582082    8.491907    7.274467    -3.089891    -14.975854    -25.226967    0.000000    0.000000    0.000000    
0.788263    0.905832    -1.031825    -2.010802    1.186335    -7.495667    -3.927085    -11.771646    -0.405018    13.108658    13.834349    -0.110205    -10.757146    15.398318    1.918010    6.542644    -16.001440    3.901477    0.000000    0.000000    0.000000    -64.269707    4.046150    -6.364174    -52.477570    2.599764    -5.271685    24.936916    25.834324    -6.601286    -7.082644    12.582694    5.452190    68.015900    -37.547352    14.415429    39.359394    -2.802268    -7.824641    -34.571129    42.157509    20.511164    -1.145546    -0.700941    2.869658    0.221058    8.369977    0.154240    1.748126    -14.698393    6.449790    0.000000    0.000000    0.000000    -1.297071    -1.056747    24.755880    5.581790    8.442572    7.292141    -3.077304    -14.965675    -25.261345    0.000000    0.000000    0.000000    
